<mxfile host="app.diagrams.net" agent="Mozilla/5.0 (Macintosh; Intel Mac OS X 10_15_7) AppleWebKit/537.36 (KHTML, like Gecko) Chrome/134.0.0.0 Safari/537.36 OPR/119.0.0.0" version="27.1.6">
  <diagram name="Page-1" id="rusU8i9yw-daWQ4WOf54">
    <mxGraphModel dx="1366" dy="710" grid="1" gridSize="10" guides="1" tooltips="1" connect="1" arrows="1" fold="1" page="1" pageScale="1" pageWidth="1169" pageHeight="827" math="0" shadow="0">
      <root>
        <mxCell id="0" />
        <mxCell id="1" parent="0" />
        <mxCell id="Dhi8sy_UzFX0rJJhaV-Q-27" value="" style="rounded=1;whiteSpace=wrap;html=1;fillColor=none;" vertex="1" parent="1">
          <mxGeometry x="190" y="50" width="120" height="70" as="geometry" />
        </mxCell>
        <mxCell id="Dhi8sy_UzFX0rJJhaV-Q-1" value="" style="shape=image;verticalLabelPosition=bottom;labelBackgroundColor=default;verticalAlign=top;aspect=fixed;imageAspect=0;image=https://images.icon-icons.com/2699/PNG/512/rabbitmq_logo_icon_170812.png;clipPath=inset(16.67% 1.33% 28.67% 1.67%);" vertex="1" parent="1">
          <mxGeometry x="198.39" y="67.49000000000001" width="103.23" height="29.09" as="geometry" />
        </mxCell>
        <mxCell id="Dhi8sy_UzFX0rJJhaV-Q-2" value="" style="shape=image;verticalLabelPosition=bottom;labelBackgroundColor=default;verticalAlign=top;aspect=fixed;imageAspect=0;image=https://cdn-icons-png.flaticon.com/512/5044/5044729.png;" vertex="1" parent="1">
          <mxGeometry x="70" y="67.49000000000001" width="35" height="35" as="geometry" />
        </mxCell>
        <mxCell id="Dhi8sy_UzFX0rJJhaV-Q-5" value="&lt;b&gt;vhost&lt;/b&gt;:&amp;nbsp;&lt;span style=&quot;background-color: transparent;&quot;&gt;retail-synces-app&lt;/span&gt;&lt;span style=&quot;background-color: transparent; white-space: pre;&quot;&gt;&#x9;&lt;/span&gt;&lt;div&gt;&lt;b&gt;queue&lt;/b&gt;: SyncProductSearch&lt;/div&gt;" style="text;html=1;align=left;verticalAlign=top;whiteSpace=wrap;rounded=0;spacingLeft=2;fontSize=10;" vertex="1" parent="1">
          <mxGeometry x="190" y="10" width="130" height="40" as="geometry" />
        </mxCell>
        <mxCell id="Dhi8sy_UzFX0rJJhaV-Q-6" value="kv-synces-product-search-transfer-kafkaÂ " style="shape=image;verticalLabelPosition=bottom;labelBackgroundColor=default;verticalAlign=top;aspect=fixed;imageAspect=0;image=https://cdn-icons-png.freepik.com/512/6387/6387426.png;fontSize=10;" vertex="1" parent="1">
          <mxGeometry x="420" y="37.5" width="40" height="40" as="geometry" />
        </mxCell>
        <mxCell id="Dhi8sy_UzFX0rJJhaV-Q-14" value="&lt;b&gt;topic&lt;/b&gt;:&amp;nbsp;SyncProductSearchService-live-dc1" style="text;html=1;align=left;verticalAlign=top;whiteSpace=wrap;rounded=0;spacingLeft=2;rotation=0;fontSize=10;strokeColor=default;" vertex="1" parent="1">
          <mxGeometry x="550" y="154.99" width="210" height="30" as="geometry" />
        </mxCell>
        <mxCell id="Dhi8sy_UzFX0rJJhaV-Q-21" style="edgeStyle=orthogonalEdgeStyle;rounded=0;orthogonalLoop=1;jettySize=auto;html=1;" edge="1" parent="1" source="Dhi8sy_UzFX0rJJhaV-Q-18" target="Dhi8sy_UzFX0rJJhaV-Q-20">
          <mxGeometry relative="1" as="geometry" />
        </mxCell>
        <mxCell id="Dhi8sy_UzFX0rJJhaV-Q-18" value="kv-search-logstash-kafka" style="shape=image;verticalLabelPosition=bottom;labelBackgroundColor=default;verticalAlign=top;aspect=fixed;imageAspect=0;image=https://cdn-icons-png.freepik.com/512/6387/6387426.png;fontSize=10;" vertex="1" parent="1">
          <mxGeometry x="850" y="144.99" width="40" height="40" as="geometry" />
        </mxCell>
        <mxCell id="Dhi8sy_UzFX0rJJhaV-Q-20" value="elasticSearch" style="shape=image;verticalLabelPosition=bottom;labelBackgroundColor=default;verticalAlign=top;aspect=fixed;imageAspect=0;image=https://cdn.worldvectorlogo.com/logos/elasticsearch.svg;container=0;fontStyle=0;fontSize=10;" vertex="1" parent="1">
          <mxGeometry x="970" y="144.99" width="40" height="40" as="geometry" />
        </mxCell>
        <mxCell id="Dhi8sy_UzFX0rJJhaV-Q-28" value="" style="curved=1;endArrow=classic;html=1;rounded=0;entryX=0;entryY=0.5;entryDx=0;entryDy=0;exitX=1;exitY=0.5;exitDx=0;exitDy=0;" edge="1" parent="1" source="Dhi8sy_UzFX0rJJhaV-Q-2" target="Dhi8sy_UzFX0rJJhaV-Q-27">
          <mxGeometry width="50" height="50" relative="1" as="geometry">
            <mxPoint x="130" y="127.49000000000001" as="sourcePoint" />
            <mxPoint x="180" y="77.49000000000001" as="targetPoint" />
            <Array as="points">
              <mxPoint x="130" y="77.49000000000001" />
            </Array>
          </mxGeometry>
        </mxCell>
        <mxCell id="Dhi8sy_UzFX0rJJhaV-Q-35" value="kv-synces-product-search" style="shape=image;verticalLabelPosition=bottom;labelBackgroundColor=default;verticalAlign=top;aspect=fixed;imageAspect=0;image=https://cdn-icons-png.freepik.com/512/6387/6387426.png;fontSize=10;" vertex="1" parent="1">
          <mxGeometry x="420" y="184.98999999999995" width="40" height="40" as="geometry" />
        </mxCell>
        <mxCell id="Dhi8sy_UzFX0rJJhaV-Q-40" value="" style="curved=1;endArrow=classic;html=1;rounded=0;exitX=1;exitY=0.5;exitDx=0;exitDy=0;" edge="1" parent="1" source="Dhi8sy_UzFX0rJJhaV-Q-27" target="Dhi8sy_UzFX0rJJhaV-Q-6">
          <mxGeometry width="50" height="50" relative="1" as="geometry">
            <mxPoint x="340" y="207.5" as="sourcePoint" />
            <mxPoint x="390" y="157.5" as="targetPoint" />
            <Array as="points">
              <mxPoint x="350" y="67.5" />
            </Array>
          </mxGeometry>
        </mxCell>
        <mxCell id="Dhi8sy_UzFX0rJJhaV-Q-34" value="&lt;b&gt;topic&lt;/b&gt;:&amp;nbsp;SyncProductSearchServicePre-live-dc1" style="text;html=1;align=left;verticalAlign=top;whiteSpace=wrap;rounded=0;spacingLeft=2;rotation=0;fontSize=10;strokeColor=default;" vertex="1" parent="1">
          <mxGeometry x="550" y="120" width="210" height="30" as="geometry" />
        </mxCell>
        <mxCell id="Dhi8sy_UzFX0rJJhaV-Q-11" value="" style="shape=image;verticalLabelPosition=bottom;labelBackgroundColor=default;verticalAlign=top;aspect=fixed;imageAspect=0;image=https://images.icon-icons.com/2699/PNG/512/apache_kafka_vertical_logo_icon_169585.png;container=0;" vertex="1" parent="1">
          <mxGeometry x="630" y="74.09000000000009" width="43.92" height="45.91" as="geometry" />
        </mxCell>
        <mxCell id="Dhi8sy_UzFX0rJJhaV-Q-45" value="" style="curved=1;endArrow=classic;html=1;rounded=0;entryX=0;entryY=0;entryDx=0;entryDy=0;exitX=1;exitY=0.5;exitDx=0;exitDy=0;dashed=1;" edge="1" parent="1" source="Dhi8sy_UzFX0rJJhaV-Q-6" target="Dhi8sy_UzFX0rJJhaV-Q-34">
          <mxGeometry width="50" height="50" relative="1" as="geometry">
            <mxPoint x="410" y="87.5" as="sourcePoint" />
            <mxPoint x="460" y="37.5" as="targetPoint" />
            <Array as="points">
              <mxPoint x="530" y="67.5" />
            </Array>
          </mxGeometry>
        </mxCell>
        <mxCell id="Dhi8sy_UzFX0rJJhaV-Q-49" value="" style="curved=1;endArrow=none;html=1;rounded=0;entryX=0;entryY=0.5;entryDx=0;entryDy=0;startArrow=classic;startFill=1;" edge="1" parent="1" source="Dhi8sy_UzFX0rJJhaV-Q-35" target="Dhi8sy_UzFX0rJJhaV-Q-34">
          <mxGeometry width="50" height="50" relative="1" as="geometry">
            <mxPoint x="480" y="187.5" as="sourcePoint" />
            <mxPoint x="530" y="137.5" as="targetPoint" />
            <Array as="points">
              <mxPoint x="480" y="137.5" />
            </Array>
          </mxGeometry>
        </mxCell>
        <mxCell id="Dhi8sy_UzFX0rJJhaV-Q-51" value="" style="curved=1;endArrow=classic;html=1;rounded=0;entryX=0.25;entryY=1;entryDx=0;entryDy=0;exitX=1;exitY=0.75;exitDx=0;exitDy=0;dashed=1;" edge="1" parent="1" source="Dhi8sy_UzFX0rJJhaV-Q-35" target="Dhi8sy_UzFX0rJJhaV-Q-14">
          <mxGeometry width="50" height="50" relative="1" as="geometry">
            <mxPoint x="560" y="367.5" as="sourcePoint" />
            <mxPoint x="610" y="317.5" as="targetPoint" />
            <Array as="points">
              <mxPoint x="560" y="247.5" />
            </Array>
          </mxGeometry>
        </mxCell>
        <mxCell id="Dhi8sy_UzFX0rJJhaV-Q-52" value="" style="curved=1;endArrow=none;html=1;rounded=0;entryX=0;entryY=0.5;entryDx=0;entryDy=0;exitX=1;exitY=0;exitDx=0;exitDy=0;startArrow=classic;startFill=1;" edge="1" parent="1" source="Dhi8sy_UzFX0rJJhaV-Q-35" target="Dhi8sy_UzFX0rJJhaV-Q-14">
          <mxGeometry width="50" height="50" relative="1" as="geometry">
            <mxPoint x="440" y="216.5" as="sourcePoint" />
            <mxPoint x="540" y="167.5" as="targetPoint" />
            <Array as="points">
              <mxPoint x="470" y="169.5" />
            </Array>
          </mxGeometry>
        </mxCell>
        <mxCell id="Dhi8sy_UzFX0rJJhaV-Q-54" value="" style="curved=1;endArrow=classic;html=1;rounded=0;exitX=1;exitY=0.5;exitDx=0;exitDy=0;" edge="1" parent="1" source="Dhi8sy_UzFX0rJJhaV-Q-14" target="Dhi8sy_UzFX0rJJhaV-Q-18">
          <mxGeometry width="50" height="50" relative="1" as="geometry">
            <mxPoint x="760" y="207.5" as="sourcePoint" />
            <mxPoint x="810" y="157.5" as="targetPoint" />
            <Array as="points">
              <mxPoint x="760" y="157.5" />
            </Array>
          </mxGeometry>
        </mxCell>
      </root>
    </mxGraphModel>
  </diagram>
</mxfile>
